<svg width="390" height="370" viewBox="0 0 390 370" fill="none" xmlns="http://www.w3.org/2000/svg">
<path d="M377.643 369.23H109.355C102.533 369.23 96.9982 363.092 96.9982 355.529V271.955H279.89C286.712 271.955 292.247 265.817 292.247 258.254V111.656C292.247 104.094 286.71 97.9554 279.89 97.9554H96.9982V14.3812C96.9982 6.81855 102.535 0.68042 109.355 0.68042H377.643C384.465 0.68042 390 6.81855 390 14.3812V355.529C390 363.092 384.463 369.23 377.643 369.23Z" fill="#0E2D42"/>
<path d="M96.9981 271.955H12.3569C5.53495 271.955 0 265.817 0 258.254V111.656C0 104.093 5.53678 97.9553 12.3569 97.9553H96.9981V271.955Z" fill="#0E2D42"/>
<path d="M2.35217 296.696H72.7133V367.057C72.7133 368.069 71.8919 368.891 70.8799 368.891H2.35217C1.34015 368.891 0.518799 368.069 0.518799 367.057V298.53C0.518799 297.518 1.34015 296.696 2.35217 296.696Z" fill="#0E2D42"/>
</svg>
